<svg width="500" height="267" viewBox="0 0 500 267" version="1.1" xmlns="http://www.w3.org/2000/svg" xmlns:xlink="http://www.w3.org/1999/xlink">
<title>Frame</title>
<desc>Created using Figma</desc>
<g id="Canvas" transform="translate(22 -929)">
<clipPath id="clip-0" clip-rule="evenodd">
<path d="M -22 929L 478 929L 478 1195.67L -22 1195.67L -22 929Z" fill="#FFFFFF"/>
</clipPath>
<g id="Frame" clip-path="url(#clip-0)">
<g id="Layer 1">
<g id="Vector">
<use xlink:href="#path0_fill" transform="translate(160.652 979)" fill="#D83653"/>
</g>
<g id="Vector">
<use xlink:href="#path1_fill" transform="translate(297.232 981.683)" fill="#D83653"/>
</g>
<g id="Vector">
<use xlink:href="#path2_fill" transform="translate(28 981.683)" fill="#D83653"/>
</g>
</g>
</g>
</g>
<defs>
<path id="path0_fill" d="M 22.4656 23.528C 7.48855 39.2138 -2.88672e-06 60.0584 -2.88672e-06 86.0616C -2.88672e-06 109.756 6.91089 128.962 20.7327 143.678C 34.5544 158.393 52.4186 165.751 74.3253 165.751C 88.2488 165.783 102.04 163.048 114.897 157.704L 114.897 146.975C 103.198 152.713 89.9724 155.582 75.2198 155.582C 56.7394 155.582 41.4831 149.267 29.4511 136.638C 17.419 124.008 11.4021 106.777 11.4004 84.9466C 11.4004 62.2962 17.6966 44.1527 30.289 30.516C 42.8814 16.8793 59.2368 10.0614 79.3551 10.0625C 91.6099 10.0227 103.73 12.6145 114.897 17.6627L 114.897 5.92458C 103.546 1.95904 91.6028 -0.0442152 79.5793 0.000740211C 56.4796 0.000740211 37.4417 7.84315 22.4656 23.528Z"/>
<path id="path1_fill" d="M 70.9719 -2.11798e-07L 60.466 -2.11798e-07L 6.52651e-06 160.275L 12.1823 160.275L 30.5121 110.426L 100.032 110.426L 118.362 160.275L 130.768 160.275L 70.9719 -2.11798e-07Z"/>
<path id="path2_fill" d="M 60.4665 -2.11798e-07L -1.49043e-07 160.275L 12.1829 160.275L 30.5127 110.426L 100.032 110.426L 118.362 160.275L 130.768 160.275L 70.9724 -2.11798e-07L 60.4665 -2.11798e-07Z"/>
</defs>
</svg>
