<svg width="555" height="130" viewBox="0 0 555 130" version="1.1" xmlns="http://www.w3.org/2000/svg" xmlns:xlink="http://www.w3.org/1999/xlink">
<title>icons</title>
<desc>Created using Figma</desc>
<g id="Canvas" transform="translate(-430 -1281)">
<clipPath id="clip-0" clip-rule="evenodd">
<path d="M 430 1281L 985 1281L 985 1411L 430 1411L 430 1281Z" fill="#FFFFFF"/>
</clipPath>
<g id="icons" clip-path="url(#clip-0)">
<g id="Layer 1 2">
<g id="Vector">
<use xlink:href="#path0_fill" transform="translate(886.607 1304.53)" fill="#4C5363"/>
</g>
<g id="Vector">
<use xlink:href="#path1_fill" transform="translate(554.593 1304)" fill="#4C5363"/>
</g>
<g id="Vector">
<use xlink:href="#path2_fill" transform="translate(571.632 1324.81)" fill="#A1D7D9"/>
</g>
<g id="Vector">
<use xlink:href="#path3_fill" transform="translate(445 1304.13)" fill="#4C5363"/>
</g>
<g id="Vector">
<use xlink:href="#path4_fill" transform="translate(472.521 1320.21)" fill="#A1D7D9"/>
</g>
<g id="Vector">
<use xlink:href="#path5_fill" transform="translate(458.919 1351.1)" fill="#A1D7D9"/>
</g>
<g id="Vector">
<use xlink:href="#path6_fill" transform="translate(776.815 1304.13)" fill="#4C5363"/>
</g>
<g id="Vector">
<use xlink:href="#path7_fill" transform="translate(791.857 1322.47)" fill="#A2D8DA"/>
</g>
<g id="Vector">
<use xlink:href="#path8_fill" transform="translate(666.107 1304)" fill="#4C5363"/>
</g>
<g id="Vector">
<use xlink:href="#path9_fill" transform="translate(685.292 1326.36)" fill="#A2D8DA"/>
</g>
<g id="Vector">
<use xlink:href="#path10_fill" transform="matrix(0.95954 0.281571 -0.281571 0.95954 707.714 1337.98)" fill="#A2D8DA"/>
</g>
<g id="Vector">
<use xlink:href="#path11_fill" transform="translate(692.481 1341.86)" fill="#A2D8DA"/>
</g>
<g id="Vector">
<use xlink:href="#path12_fill" transform="translate(710.556 1342.15)" fill="#A2D8DA"/>
</g>
<g id="Vector">
<use xlink:href="#path13_fill" transform="translate(718.32 1354.95)" fill="#A2D8DA"/>
</g>
<g id="Vector">
<use xlink:href="#path14_fill" transform="translate(912.723 1324.42)" fill="#A0D7D9"/>
</g>
</g>
</g>
</g>
<defs>
<path id="path0_fill" d="M 41.6967 83.3934C 64.7252 83.3934 83.3934 64.7252 83.3934 41.6967C 83.3934 18.6682 64.7252 0 41.6967 0C 18.6683 0 1.03595e-05 18.6682 1.03595e-05 41.6967C 1.03595e-05 64.7252 18.6683 83.3934 41.6967 83.3934Z"/>
<path id="path1_fill" d="M 41.6967 83.3934C 64.7252 83.3934 83.3934 64.7252 83.3934 41.6967C 83.3934 18.6682 64.7252 0 41.6967 0C 18.6683 0 -4.15744e-06 18.6682 -4.15744e-06 41.6967C -4.15744e-06 64.7252 18.6683 83.3934 41.6967 83.3934Z"/>
<path id="path2_fill" d="M 41.6019 12.7721C 41.6365 12.4058 41.6578 12.0357 41.6578 11.6599C 41.6592 9.09623 40.8152 6.6036 39.2565 4.56818C 37.6978 2.53275 35.5114 1.06814 33.0359 0.401216C 30.5605 -0.265703 27.9342 -0.0977026 25.564 0.879192C 23.1937 1.85609 21.2117 3.58735 19.925 5.80479C 19.7575 5.79642 19.59 5.77911 19.4225 5.77911C 17.3581 5.78035 15.3448 6.42141 13.6598 7.61404C 11.9747 8.80667 10.7007 10.4922 10.0131 12.4388C 7.77771 12.1796 5.52647 12.7693 3.70517 14.091C 1.88386 15.4128 0.625287 17.3703 0.178646 19.5759C -0.267995 21.7815 0.129872 24.0744 1.29345 26.0006C 2.45703 27.9269 4.3015 29.3459 6.46162 29.9768C 8.3482 30.5268 10.4944 30.3347 12.4602 30.3347L 23.9556 30.3347L 23.9556 33.3151L 20.7536 33.3151C 20.2569 33.3165 19.7811 33.5145 19.4299 33.8656C 19.0787 34.2168 18.8808 34.6927 18.8793 35.1893L 18.8793 35.6505L 10.3928 35.6505L 10.3928 37.445L 18.8793 37.445L 18.8793 37.7314C 18.8808 38.228 19.0787 38.7039 19.4299 39.0551C 19.7811 39.4063 20.2569 39.6042 20.7536 39.6057L 29.7984 39.6057C 30.295 39.6042 30.7709 39.4063 31.1221 39.0551C 31.4733 38.7039 31.6712 38.228 31.6727 37.7314L 31.6727 37.3679L 39.4524 37.3679L 39.4524 35.5735L 31.6716 35.5735L 31.6716 35.1893C 31.6701 34.6927 31.4722 34.2168 31.121 33.8656C 30.7698 33.5145 30.2939 33.3165 29.7973 33.3151L 25.8427 33.3151L 25.8427 30.337L 40.2642 30.337C 40.3838 30.3333 40.503 30.3211 40.6209 30.3007C 42.7559 30.1299 44.7566 29.1914 46.2528 27.659C 47.7491 26.1266 48.6394 24.1039 48.7591 21.9656C 48.8788 19.8272 48.2197 17.7178 46.9039 16.028C 45.588 14.3382 43.7045 13.1823 41.6019 12.7743L 41.6019 12.7721Z"/>
<path id="path3_fill" d="M 42.9475 46.9731C 49.7427 46.9742 56.3253 49.3422 61.5641 53.6701C 66.8028 57.998 70.3704 64.0155 71.6537 70.6884C 77.4378 64.7118 81.3022 57.1418 82.7501 48.9516C 84.198 40.7613 83.1632 32.3253 79.7788 24.7278C 76.3945 17.1303 70.8151 10.7186 63.7581 6.31705C 56.701 1.91547 48.4888 -0.274879 40.1771 0.0275884C 31.8654 0.330056 23.8341 3.11151 17.1157 8.0144C 10.3972 12.9173 5.29867 19.7175 2.47546 27.5409C -0.347744 35.3643 -0.76658 43.8533 1.2728 51.9166C 3.31217 59.9799 7.71655 67.249 13.9197 72.7894C 14.7566 65.6778 18.1745 59.1208 23.5252 54.3621C 28.8758 49.6035 35.7869 46.9742 42.9475 46.9731L 42.9475 46.9731ZM 41.9241 16.0866C 44.7731 16.0866 47.5581 16.9314 49.927 18.5142C 52.2958 20.0971 54.1421 22.3468 55.2324 24.9789C 56.3226 27.611 56.6079 30.5073 56.0521 33.3016C 55.4963 36.0958 54.1244 38.6625 52.1098 40.677C 50.0953 42.6916 47.5286 44.0635 44.7343 44.6193C 41.9401 45.1751 39.0438 44.8899 36.4117 43.7996C 33.7795 42.7093 31.5298 40.863 29.947 38.4942C 28.3642 36.1254 27.5194 33.3403 27.5194 30.4914C 27.5193 28.5996 27.8918 26.7265 28.6157 24.9787C 29.3396 23.231 30.4006 21.643 31.7382 20.3053C 33.0758 18.9676 34.6638 17.9065 36.4115 17.1826C 38.1592 16.4587 40.0324 16.0861 41.9241 16.0861L 41.9241 16.0866Z"/>
<path id="path4_fill" d="M 14.4036 28.8072C 22.3585 28.8072 28.8073 22.3585 28.8073 14.4036C 28.8073 6.44872 22.3585 0 14.4036 0C 6.44873 0 0 6.44872 0 14.4036C 0 22.3585 6.44873 28.8072 14.4036 28.8072Z"/>
<path id="path5_fill" d="M 57.734 23.7155C 56.4176 16.8627 52.6931 10.707 47.2336 6.36098C 41.7741 2.015 34.9399 -0.234421 27.9664 0.0193468C 20.993 0.273115 14.3404 3.01332 9.21121 7.74463C 4.08205 12.4759 0.81477 18.8861 -2.38541e-07 25.8165C 8.02884 32.9966 18.5263 36.7886 29.2902 36.3969C 40.0542 36.0051 50.2483 31.4602 57.734 23.7155Z"/>
<path id="path6_fill" d="M 41.6967 83.3934C 64.7252 83.3934 83.3934 64.7252 83.3934 41.6967C 83.3934 18.6682 64.7252 0 41.6967 0C 18.6683 0 1.25405e-05 18.6682 1.25405e-05 41.6967C 1.25405e-05 64.7252 18.6683 83.3934 41.6967 83.3934Z"/>
<path id="path7_fill" d="M 49.1514 29.36L 48.2581 29.36C 48.2536 28.2389 48.2581 27.0904 48.2788 26.5622C 48.549 20.4547 46.6546 19.7864 41.589 19.9601C 39.3881 20.0354 37.1843 20.0338 34.9806 20.0159L 34.9806 20.0271L 27.8028 20.0271L 27.8028 17.4113L 27.7816 17.4113L 27.7816 13.3043L 35.4111 13.3043C 36.0584 13.3043 36.6791 13.0472 37.1368 12.5895C 37.5944 12.1318 37.8515 11.5111 37.8515 10.8639L 37.8515 2.44043C 37.8515 1.79319 37.5944 1.17245 37.1368 0.714785C 36.6791 0.257116 36.0584 -5.1116e-08 35.4111 -5.1116e-08L 17.5113 -5.1116e-08C 16.864 -5.1116e-08 16.2433 0.257116 15.7856 0.714785C 15.3279 1.17245 15.0708 1.79319 15.0708 2.44043L 15.0708 10.8655C 15.0713 11.5125 15.3286 12.1328 15.7862 12.5901C 16.2438 13.0474 16.8643 13.3043 17.5113 13.3043L 24.7583 13.3043L 24.7583 17.4096L 24.7354 17.4096L 24.7354 20.0259L 21.9873 20.0259L 21.9873 20.0176C 21.9136 20.0176 21.8394 20.0254 21.764 20.0259L 12.2725 20.0259L 12.2725 20.0405C 11.2552 20.0405 10.2385 20.0405 9.22127 20.0455C 5.49056 20.0701 4.27229 21.3213 4.22986 25.1033C 4.21367 26.5382 4.22315 27.9675 4.22594 29.3589L 3.42475 29.3589C 2.51645 29.3589 1.64534 29.7197 1.00308 30.362C 0.360809 31.0042 8.7238e-06 31.8753 8.7238e-06 32.7836L 8.7238e-06 37.3814C 8.7238e-06 38.2897 0.360809 39.1608 1.00308 39.8031C 1.64534 40.4454 2.51645 40.8062 3.42475 40.8062L 8.02253 40.8062C 8.93083 40.8062 9.80194 40.4454 10.4442 39.8031C 11.0865 39.1608 11.4473 38.2897 11.4473 37.3814L 11.4473 32.7836C 11.4473 31.8753 11.0865 31.0042 10.4442 30.362C 9.80194 29.7197 8.93083 29.3589 8.02253 29.3589L 6.89921 29.3589C 6.89921 28.0574 6.88302 26.6678 6.9048 25.2736C 6.94388 22.7662 7.25317 22.4262 9.76283 22.4089C 13.8386 22.3776 17.9144 22.3882 21.9901 22.4089L 24.7382 22.3882L 24.7382 29.3578L 24.0995 29.3578C 23.1912 29.3578 22.3201 29.7186 21.6778 30.3608C 21.0355 31.0031 20.6747 31.8742 20.6747 32.7825L 20.6747 37.3803C 20.6747 38.2886 21.0355 39.1597 21.6778 39.802C 22.3201 40.4442 23.1912 40.8051 24.0995 40.8051L 28.6973 40.8051C 29.6056 40.8051 30.4767 40.4442 31.1189 39.802C 31.7612 39.1597 32.122 38.2886 32.122 37.3803L 32.122 32.7825C 32.122 31.8742 31.7612 31.0031 31.1189 30.3608C 30.4767 29.7186 29.6056 29.3578 28.6973 29.3578L 27.804 29.3578L 27.804 22.3904L 34.9795 22.3904L 34.9795 22.3932C 37.9878 22.3932 40.9591 22.3932 43.9294 22.4206C 44.9651 22.4295 45.5603 23.1336 45.5698 24.2033C 45.5849 25.9341 45.5765 27.6649 45.5748 29.36L 44.5564 29.36C 43.6481 29.36 42.777 29.7208 42.1348 30.3631C 41.4925 31.0053 41.1317 31.8764 41.1317 32.7847L 41.1317 37.3825C 41.1317 38.2908 41.4925 39.1619 42.1348 39.8042C 42.777 40.4465 43.6481 40.8073 44.5564 40.8073L 49.1514 40.8073C 50.0597 40.8073 50.9308 40.4465 51.5731 39.8042C 52.2154 39.1619 52.5762 38.2908 52.5762 37.3825L 52.5762 32.7847C 52.5762 31.8764 52.2154 31.0053 51.5731 30.3631C 50.9308 29.7208 50.0597 29.36 49.1514 29.36L 49.1514 29.36Z"/>
<path id="path8_fill" d="M 41.6967 83.3934C 64.7252 83.3934 83.3934 64.7252 83.3934 41.6967C 83.3934 18.6682 64.7252 0 41.6967 0C 18.6682 0 6.54285e-06 18.6682 6.54285e-06 41.6967C 6.54285e-06 64.7252 18.6682 83.3934 41.6967 83.3934Z"/>
<path id="path9_fill" d="M 40.3042 -5.96354e-07L 2.82846 -5.96354e-07C 2.0783 -5.96354e-07 1.35888 0.297999 0.828444 0.828439C 0.298003 1.35888 6.27023e-06 2.07831 6.27023e-06 2.82847L 6.27023e-06 35.2246C 6.27023e-06 35.9748 0.298003 36.6942 0.828444 37.2246C 1.35888 37.7551 2.0783 38.0531 2.82846 38.0531L 30.6268 38.0531L 30.6268 35.429L 3.26618 35.429L 3.26618 8.4787L 39.8648 8.4787L 39.8648 26.6711L 43.131 26.6711L 43.131 2.8307C 43.1313 2.45921 43.0585 2.09131 42.9165 1.74799C 42.7746 1.40468 42.5665 1.09268 42.304 0.829819C 42.0415 0.566957 41.7298 0.358381 41.3866 0.215999C 41.0435 0.0736169 40.6757 0.000219276 40.3042 -5.96354e-07ZM 29.7173 5.93274C 29.4161 5.93274 29.1216 5.84341 28.8711 5.67605C 28.6206 5.50869 28.4254 5.27081 28.3102 4.9925C 28.1949 4.71419 28.1647 4.40795 28.2235 4.11249C 28.2823 3.81704 28.4273 3.54565 28.6403 3.33264C 28.8533 3.11963 29.1247 2.97457 29.4202 2.9158C 29.7156 2.85703 30.0219 2.88719 30.3002 3.00247C 30.5785 3.11775 30.8164 3.31297 30.9837 3.56344C 31.1511 3.81392 31.2404 4.10839 31.2404 4.40964C 31.2404 4.81359 31.0799 5.201 30.7943 5.48664C 30.5087 5.77228 30.1213 5.93274 29.7173 5.93274L 29.7173 5.93274ZM 34.3168 5.93274C 34.0155 5.93274 33.721 5.84341 33.4706 5.67605C 33.2201 5.50869 33.0249 5.27081 32.9096 4.9925C 32.7943 4.71419 32.7642 4.40795 32.823 4.11249C 32.8817 3.81704 33.0268 3.54565 33.2398 3.33264C 33.4528 3.11963 33.7242 2.97457 34.0196 2.9158C 34.3151 2.85703 34.6213 2.88719 34.8996 3.00247C 35.178 3.11775 35.4158 3.31297 35.5832 3.56344C 35.7506 3.81392 35.8399 4.10839 35.8399 4.40964C 35.8399 4.81349 35.6795 5.20082 35.394 5.48644C 35.1085 5.77206 34.7212 5.9326 34.3173 5.93274L 34.3168 5.93274ZM 39.0966 5.93274C 38.7953 5.93274 38.5009 5.84341 38.2504 5.67605C 37.9999 5.50869 37.8047 5.27081 37.6894 4.9925C 37.5741 4.71419 37.544 4.40795 37.6028 4.11249C 37.6615 3.81704 37.8066 3.54565 38.0196 3.33264C 38.2326 3.11963 38.504 2.97457 38.7995 2.9158C 39.0949 2.85703 39.4012 2.88719 39.6795 3.00247C 39.9578 3.11775 40.1956 3.31297 40.363 3.56344C 40.5304 3.81392 40.6197 4.10839 40.6197 4.40964C 40.6197 4.81359 40.4592 5.201 40.1736 5.48664C 39.888 5.77228 39.5005 5.93274 39.0966 5.93274Z"/>
<path id="path10_fill" d="M 1.65208 0L 1.65152 0C 0.739412 0 -2.8625e-06 0.73941 -2.8625e-06 1.65152L -2.8625e-06 15.3466C -2.8625e-06 16.2587 0.739412 16.9982 1.65152 16.9982L 1.65208 16.9982C 2.56419 16.9982 3.30359 16.2587 3.30359 15.3466L 3.30359 1.65152C 3.30359 0.73941 2.56419 0 1.65208 0Z"/>
<path id="path11_fill" d="M 9.05481 5.65527L 5.85561 4.71618L 8.81473 3.10095C 9.19914 2.89098 9.48438 2.5369 9.60773 2.11661C 9.73107 1.69632 9.6824 1.24424 9.47242 0.859838C 9.26245 0.475431 8.90837 0.19018 8.48808 0.0668365C 8.06779 -0.0565071 7.61573 -0.00784044 7.23133 0.202132L 0.883739 3.66932C 0.6864 3.77736 0.513368 3.9248 0.375356 4.10247C 0.237344 4.28015 0.137305 4.48428 0.0814389 4.70222C 0.0775307 4.71506 0.0702719 4.72567 0.066922 4.73851C 0.00579425 4.94666 -0.0137232 5.16482 0.0094846 5.38052C 0.0326924 5.59622 0.0981669 5.80524 0.202175 5.99563C 0.306183 6.18601 0.446671 6.35405 0.615636 6.49012C 0.7846 6.62619 0.978725 6.72764 1.18691 6.78867L 8.12686 8.82544C 8.54718 8.94878 8.99929 8.90011 9.38372 8.69012C 9.76815 8.48014 10.0534 8.12603 10.1768 7.70572C 10.3001 7.2854 10.2514 6.8333 10.0414 6.44888C 9.83146 6.06445 9.47735 5.77918 9.05704 5.65583L 9.05481 5.65527Z"/>
<path id="path12_fill" d="M 1.18879 5.65528L 4.38797 4.71618L 1.42887 3.10095C 1.04446 2.89098 0.759214 2.5369 0.63587 2.11661C 0.512527 1.69632 0.561185 1.24424 0.771157 0.859838C 0.98113 0.475431 1.33521 0.19018 1.7555 0.0668367C 2.17579 -0.0565069 2.62786 -0.0078402 3.01227 0.202132L 9.35984 3.66932C 9.55718 3.77736 9.73023 3.9248 9.86824 4.10247C 10.0063 4.28015 10.1063 4.48428 10.1622 4.70222C 10.1661 4.71506 10.1733 4.72567 10.1767 4.73851C 10.2378 4.94666 10.2573 5.16482 10.2341 5.38052C 10.2109 5.59622 10.1454 5.80524 10.0414 5.99563C 9.93742 6.18601 9.79693 6.35405 9.62796 6.49012C 9.459 6.62619 9.26487 6.72764 9.05669 6.78867L 2.11672 8.82544C 1.6964 8.94878 1.24431 8.90011 0.859878 8.69012C 0.47545 8.48014 0.190177 8.12603 0.0668296 7.70572C -0.0565182 7.2854 -0.00783699 6.83331 0.202151 6.44888C 0.412138 6.06445 0.766245 5.77918 1.18656 5.65583L 1.18879 5.65528Z"/>
<path id="path13_fill" d="M 12.9788 8.61102L 14.1831 8.61102L 14.1831 5.57151L 12.9788 5.57151C 11.7572 5.57151 11.4663 4.86635 12.3278 4.00374L 13.1809 3.15118L 11.0308 1.00219L 10.1788 1.85419C 9.31562 2.71736 8.60934 2.4248 8.61157 1.20486C 8.61157 1.20151 8.61157 1.19928 8.61157 1.19704L 8.61157 1.0564e-06L 5.57375 1.0564e-06L 5.57375 1.20542C 5.5704 2.42256 4.86633 2.7129 4.00428 1.8514L 3.15173 0.998842L 1.00275 3.14783L 1.85475 4.00039C 2.71792 4.863 2.42478 5.56816 1.20541 5.56816L 5.58869e-06 5.56816L 5.58869e-06 8.60767L 1.20541 8.60767C 2.42478 8.60767 2.71736 9.31283 1.85475 10.1766L 1.0022 11.0286L 3.15119 13.1781L 4.00374 12.325C 4.86579 11.4635 5.56703 11.7544 5.57317 12.971L 5.57317 14.1803L 8.61157 14.1803L 8.61157 12.986L 8.61157 12.9788C 8.61157 11.7588 9.31562 11.4674 10.1788 12.3283L 11.0308 13.1815L 13.1803 11.0319L 12.3272 10.1799C 11.4635 9.31618 11.7549 8.61102 12.9788 8.61102ZM 7.25932 9.28659C 6.87283 9.28659 6.495 9.17199 6.17365 8.95726C 5.85229 8.74254 5.60184 8.43734 5.45393 8.08027C 5.30603 7.7232 5.26734 7.33029 5.34274 6.95123C 5.41814 6.57216 5.60426 6.22397 5.87755 5.95068C 6.15084 5.67739 6.49903 5.49128 6.87809 5.41588C 7.25716 5.34048 7.65007 5.37918 8.00714 5.52708C 8.36421 5.67498 8.6694 5.92545 8.88412 6.2468C 9.09885 6.56816 9.21345 6.94597 9.21345 7.33246C 9.21337 7.58922 9.1627 7.84345 9.06433 8.08062C 8.96595 8.31779 8.82178 8.53324 8.6401 8.71467C 8.45841 8.8961 8.24278 9.03994 8.00547 9.13798C 7.76817 9.23602 7.51386 9.28633 7.2571 9.28603L 7.25932 9.28659Z"/>
<path id="path14_fill" d="M 25.9157 12.7353L 25.9157 10.1776C 25.9297 8.84617 25.6796 7.52513 25.1798 6.29096C 24.6799 5.05679 23.9403 3.93398 23.0038 2.98749C 22.0672 2.04101 20.9522 1.28963 19.7234 0.776832C 18.4945 0.264035 17.1762 2.27598e-07 15.8447 2.27598e-07C 14.5131 2.27598e-07 13.1948 0.264035 11.966 0.776832C 10.7371 1.28963 9.62215 2.04101 8.68558 2.98749C 7.74901 3.93398 7.0094 5.05679 6.50957 6.29096C 6.00974 7.52513 5.75962 8.84617 5.77364 10.1776L 5.77364 12.7342L 5.28902 12.7342C 4.59399 12.7325 3.90544 12.8682 3.26299 13.1334C 2.62053 13.3986 2.03682 13.7881 1.54535 14.2795C 1.05389 14.771 0.664359 15.3547 0.399161 15.9972C 0.133964 16.6396 -0.00168021 17.3282 1.34858e-05 18.0232L 1.34858e-05 34.4189C -0.00168021 35.114 0.133964 35.8025 0.399161 36.4449C 0.664359 37.0874 1.05389 37.6711 1.54535 38.1626C 2.03682 38.6541 2.62053 39.0436 3.26299 39.3088C 3.90544 39.574 4.59399 39.7096 5.28902 39.7079L 25.8722 39.7079C 26.5672 39.7096 27.2557 39.574 27.8982 39.3088C 28.5406 39.0436 29.1244 38.6541 29.6158 38.1626C 30.1073 37.6711 30.4968 37.0874 30.762 36.4449C 31.0272 35.8025 31.1629 35.114 31.1612 34.4189L 31.1612 18.0243C 31.1677 17.3316 31.0369 16.6444 30.7761 16.0026C 30.5154 15.3608 30.1299 14.7771 29.6421 14.2852C 29.1543 13.7933 28.5738 13.4031 27.9341 13.1371C 27.2945 12.871 26.6085 12.7345 25.9157 12.7353L 25.9157 12.7353ZM 17.059 29.528C 17.0611 29.7196 17.0248 29.9096 16.9524 30.087C 16.8801 30.2643 16.773 30.4255 16.6375 30.5609C 16.5021 30.6964 16.3409 30.8035 16.1635 30.8758C 15.9862 30.9482 15.7961 30.9845 15.6046 30.9824C 15.412 30.9882 15.2204 30.9545 15.0413 30.8834C 14.8623 30.8123 14.6997 30.7054 14.5634 30.5692C 14.4272 30.433 14.3203 30.2703 14.2492 30.0913C 14.1782 29.9122 14.1444 29.7206 14.1502 29.528L 14.1502 26.6633C 14.1502 26.2775 14.3034 25.9076 14.5762 25.6348C 14.8489 25.3621 15.2188 25.2088 15.6046 25.2088C 15.9903 25.2088 16.3603 25.3621 16.633 25.6348C 16.9058 25.9076 17.059 26.2775 17.059 26.6633L 17.059 29.528ZM 23.0091 12.7353L 8.63838 12.7353L 8.63838 10.1776C 8.63002 9.22887 8.80967 8.28783 9.16696 7.40886C 9.52425 6.52989 10.0521 5.7304 10.7201 5.05654C 11.388 4.38268 12.1828 3.84779 13.0586 3.48277C 13.9344 3.11774 14.8738 2.9298 15.8226 2.9298C 16.7714 2.9298 17.7108 3.11774 18.5866 3.48277C 19.4624 3.84779 20.2572 4.38268 20.9252 5.05654C 21.5931 5.7304 22.121 6.52989 22.4783 7.40886C 22.8355 8.28783 23.0152 9.22887 23.0069 10.1776L 23.0091 12.7353Z"/>
</defs>
</svg>
